<svg id="Layer_6" enable-background="new 0 0 64 64" height="512" viewBox="0 0 64 64" width="512" xmlns="http://www.w3.org/2000/svg"><g><path d="m30.196 24h-6.392l3.196 5.113z"/><path d="m21.925 24.767-3.925 5.233h7.196z"/><path d="m28.315 32 3.685 13.264 3.685-13.264z"/><path d="m18.135 32 12.158 14.59-4.053-14.59z"/><path d="m35.196 30-3.196-5.113-3.196 5.113z"/><path d="m40.196 24h-6.392l3.196 5.113z"/><path d="m49.256 16.605-.316-1.616c-6.068-.163-11.995-2.123-16.912-5.572-4.996 3.522-10.834 5.441-16.969 5.575l-.307 1.568c-1.73 9.605-3.752 22.372-3.752 26.69 0 4.42 5.529 8.766 16.433 12.915 2.906 1.108 6.228 1.107 9.133.001 10.905-4.15 16.434-8.496 16.434-12.916 0-4.316-2.017-17.051-3.744-26.645zm-14.848 32.267c-.597.717-1.475 1.128-2.408 1.128s-1.811-.411-2.408-1.128l-14.866-17.839 6.774-9.033h21l6.774 9.033z"/><path d="m53.182 15.836-.948-4.836h-2.549c-6.345 0-12.5-2.267-17.328-6.382l-.335-.285c-4.884 4.306-11.12 6.667-17.658 6.667h-2.598l-.951 4.851c-.634 3.526-3.815 21.489-3.815 27.399 0 6.426 6.04 11.718 19.008 16.653 3.82 1.456 8.165 1.456 11.98.001 12.971-4.936 19.012-10.228 19.012-16.654 0-5.91-3.181-23.873-3.818-27.414zm-15.905 42.199c-1.679.64-3.455.965-5.277.965s-3.599-.325-5.279-.966c-17.721-6.743-17.721-12.795-17.721-14.784 0-4.45 2.04-17.358 3.786-27.06l.626-3.19h.952c6.202 0 12.104-1.943 17.067-5.62l.594-.44.595.439c4.908 3.625 10.968 5.621 17.065 5.621h.823l.238.808.476 2.428c1.744 9.689 3.778 22.566 3.778 27.014 0 1.989 0 8.041-17.723 14.785z"/><path d="m33.707 46.59 12.158-14.59h-8.105z"/><path d="m38.804 30h7.196l-3.925-5.233z"/></g></svg>